<svg xmlns="http://www.w3.org/2000/svg" viewBox="0 0 1440 900" role="img" aria-label="THE CASE website on laptop">
<defs><filter id="shadow" x="-20%" y="-20%" width="140%" height="170%"><feDropShadow dx="0" dy="28" stdDeviation="24" flood-color="#1b2328" flood-opacity=".24"/></filter><linearGradient id="metal" x1="0" y1="0" x2="0" y2="1"><stop offset="0" stop-color="#596168"/><stop offset=".48" stop-color="#272d31"/><stop offset="1" stop-color="#151a1e"/></linearGradient><linearGradient id="screen" x1="0" y1="0" x2="1" y2="1"><stop offset="0" stop-color="#fbfaf8"/><stop offset="1" stop-color="#efe9e3"/></linearGradient><linearGradient id="orange" x1="0" y1="0" x2="1" y2="1"><stop offset="0" stop-color="#f0a16d"/><stop offset=".55" stop-color="#d85c2b"/><stop offset="1" stop-color="#9f3c1d"/></linearGradient></defs>
<g filter="url(#shadow)" transform="translate(95 88)"><rect x="120" width="1110" height="650" rx="38" fill="url(#metal)"/><rect x="146" y="26" width="1058" height="598" rx="22" fill="#080b0d"/><rect x="166" y="46" width="1018" height="558" rx="12" fill="url(#screen)"/><circle cx="675" cy="16" r="5" fill="#717a80"/><circle cx="675" cy="16" r="2" fill="#0b0f12"/>
<g transform="translate(166 46)"><rect width="1018" height="558" rx="12" fill="#faf9f7"/><text x="42" y="40" font-family="Arial" font-size="15" font-weight="700" fill="#11171c">THE <tspan fill="#d85c2b">CASE</tspan></text><g font-family="Arial" font-size="11" fill="#20272b"><text x="614" y="38">ABOUT</text><text x="682" y="38">SERVICES</text><text x="758" y="38">CASES</text><text x="818" y="38">CONTACTS</text></g><rect x="900" y="20" width="92" height="32" rx="16" fill="#11171c"/><text x="923" y="41" font-family="Arial" font-size="9" fill="#fff">START A PROJECT</text>
<g transform="translate(42 88)"><text y="16" font-family="Arial" font-size="10" letter-spacing="3" fill="#d85c2b">WEBSITES FOR BUSINESS</text><text y="92" font-family="Georgia" font-size="58" fill="#11171c">More than</text><text y="150" font-family="Georgia" font-size="58" fill="#11171c">a <tspan fill="#d85c2b">website</tspan></text><text y="190" font-family="Arial" font-size="17" fill="#59646a">A growth instrument for ambitious business</text><rect y="222" width="148" height="44" rx="22" fill="#d85c2b"/><text x="34" y="250" font-family="Arial" font-size="12" fill="#fff">Start a project →</text><g transform="translate(0 314)" font-family="Arial"><text y="0" font-size="28" font-family="Georgia">3×</text><text y="24" font-size="10" fill="#6f787d">more leads</text><line x1="88" y1="-8" x2="88" y2="32" stroke="#d8dcde"/><text x="112" y="0" font-size="28" font-family="Georgia">up to 40%</text><text x="112" y="24" font-size="10" fill="#6f787d">conversion growth</text><line x1="258" y1="-8" x2="258" y2="32" stroke="#d8dcde"/><text x="282" y="0" font-size="28" font-family="Georgia">from 3 days</text><text x="282" y="24" font-size="10" fill="#6f787d">launch time</text></g></g>
<g transform="translate(520 86)"><rect width="456" height="338" rx="18" fill="url(#orange)"/><path d="M0 338 L0 210 L86 156 L180 184 L256 108 L344 134 L456 58 L456 338Z" fill="#7b2f1c" opacity=".55"/><path d="M0 338 L0 286 L108 212 L196 244 L278 184 L362 205 L456 150 L456 338Z" fill="#c44c27" opacity=".68"/><rect x="190" y="82" width="184" height="198" rx="4" fill="#f4eee8" opacity=".96"/><rect x="206" y="102" width="152" height="86" fill="#ddd6cf"/><rect x="206" y="200" width="64" height="62" fill="#151a1e"/><rect x="280" y="200" width="78" height="62" fill="#e16836"/><text x="26" y="292" font-family="Georgia" font-size="30" fill="#fff">Strong visual code</text><text x="26" y="318" font-family="Arial" font-size="11" fill="#fff" opacity=".9">Structure · design · launch</text></g>
<g transform="translate(42 474)" font-family="Arial"><text y="0" font-size="11" fill="#7a8489">01</text><text y="28" font-family="Georgia" font-size="18">Strategy</text><text y="48" font-size="10" fill="#6e777c">Meaning before visuals</text><line x1="170" y1="-6" x2="170" y2="58" stroke="#dde1e3"/><text x="198" y="0" font-size="11" fill="#7a8489">02</text><text x="198" y="28" font-family="Georgia" font-size="18">UX/UI</text><text x="198" y="48" font-size="10" fill="#6e777c">Logic and scenarios</text><line x1="368" y1="-6" x2="368" y2="58" stroke="#dde1e3"/><text x="396" y="0" font-size="11" fill="#7a8489">03</text><text x="396" y="28" font-family="Georgia" font-size="18">Content</text><text x="396" y="48" font-size="10" fill="#6e777c">Copy and arguments</text><line x1="566" y1="-6" x2="566" y2="58" stroke="#dde1e3"/><text x="594" y="0" font-size="11" fill="#7a8489">04</text><text x="594" y="28" font-family="Georgia" font-size="18">Launch</text><text x="594" y="48" font-size="10" fill="#6e777c">Ready website</text></g></g>
<path d="M60 650h1230l54 68c8 10 1 24-12 24H18c-13 0-20-14-12-24z" fill="url(#metal)"/><path d="M532 650h286l24 24c5 5 1 13-6 13H514c-7 0-11-8-6-13z" fill="#8c9398" opacity=".8"/><path d="M14 742h1320" stroke="#0b0e10" stroke-width="4" opacity=".45"/></g></svg>